<mxfile host="app.diagrams.net" agent="Mozilla/5.0 (Macintosh; Intel Mac OS X 10_15_7) AppleWebKit/537.36 (KHTML, like Gecko) Chrome/129.0.0.0 Safari/537.36" version="24.8.4">
  <diagram id="C5RBs43oDa-KdzZeNtuy" name="Page-1">
    <mxGraphModel dx="3497" dy="1783" grid="1" gridSize="10" guides="1" tooltips="1" connect="1" arrows="1" fold="1" page="1" pageScale="1" pageWidth="827" pageHeight="1169" math="0" shadow="0">
      <root>
        <mxCell id="WIyWlLk6GJQsqaUBKTNV-0" />
        <mxCell id="WIyWlLk6GJQsqaUBKTNV-1" parent="WIyWlLk6GJQsqaUBKTNV-0" />
        <mxCell id="zkfFHV4jXpPFQw0GAbJ--0" value="Student" style="swimlane;fontStyle=2;align=center;verticalAlign=top;childLayout=stackLayout;horizontal=1;startSize=26;horizontalStack=0;resizeParent=1;resizeLast=0;collapsible=1;marginBottom=0;rounded=0;shadow=0;strokeWidth=1;" parent="WIyWlLk6GJQsqaUBKTNV-1" vertex="1">
          <mxGeometry x="345" y="560" width="840" height="200" as="geometry">
            <mxRectangle x="230" y="140" width="160" height="26" as="alternateBounds" />
          </mxGeometry>
        </mxCell>
        <mxCell id="zkfFHV4jXpPFQw0GAbJ--1" value="# name: String&#xa;# age: int&#xa;# gender: String&#xa;# year: int&#xa;# major: String&#xa;# gpa: double&#xa;# roommatePreferences: List&lt;String&gt;&#xa;# previousInternships: List&lt;String&gt;" style="text;align=left;verticalAlign=top;spacingLeft=4;spacingRight=4;overflow=hidden;rotatable=0;points=[[0,0.5],[1,0.5]];portConstraint=eastwest;" parent="zkfFHV4jXpPFQw0GAbJ--0" vertex="1">
          <mxGeometry y="26" width="840" height="124" as="geometry" />
        </mxCell>
        <mxCell id="zkfFHV4jXpPFQw0GAbJ--4" value="" style="line;html=1;strokeWidth=1;align=left;verticalAlign=middle;spacingTop=-1;spacingLeft=3;spacingRight=3;rotatable=0;labelPosition=right;points=[];portConstraint=eastwest;" parent="zkfFHV4jXpPFQw0GAbJ--0" vertex="1">
          <mxGeometry y="150" width="840" height="8" as="geometry" />
        </mxCell>
        <mxCell id="zkfFHV4jXpPFQw0GAbJ--5" value="+ Student(name: String, age: int, gender: String, year: int, major: String, gpa: double, roommatePreferences: List&lt;String&gt;, previousInternships: List&lt;String&gt;)&#xa;+ calculateConnectionStrength(other: Student): int" style="text;align=left;verticalAlign=top;spacingLeft=4;spacingRight=4;overflow=hidden;rotatable=0;points=[[0,0.5],[1,0.5]];portConstraint=eastwest;" parent="zkfFHV4jXpPFQw0GAbJ--0" vertex="1">
          <mxGeometry y="158" width="840" height="42" as="geometry" />
        </mxCell>
        <mxCell id="zkfFHV4jXpPFQw0GAbJ--6" value="UniversityStudent" style="swimlane;fontStyle=0;align=center;verticalAlign=top;childLayout=stackLayout;horizontal=1;startSize=26;horizontalStack=0;resizeParent=1;resizeLast=0;collapsible=1;marginBottom=0;rounded=0;shadow=0;strokeWidth=1;" parent="WIyWlLk6GJQsqaUBKTNV-1" vertex="1">
          <mxGeometry x="320" y="800" width="890" height="300" as="geometry">
            <mxRectangle x="130" y="380" width="160" height="26" as="alternateBounds" />
          </mxGeometry>
        </mxCell>
        <mxCell id="zkfFHV4jXpPFQw0GAbJ--7" value="# roommate: String&#xa;# friends: Set&lt;String&gt;&#xa;# chatHistory: Map&lt;String, String&gt;" style="text;align=left;verticalAlign=top;spacingLeft=4;spacingRight=4;overflow=hidden;rotatable=0;points=[[0,0.5],[1,0.5]];portConstraint=eastwest;" parent="zkfFHV4jXpPFQw0GAbJ--6" vertex="1">
          <mxGeometry y="26" width="890" height="54" as="geometry" />
        </mxCell>
        <mxCell id="zkfFHV4jXpPFQw0GAbJ--9" value="" style="line;html=1;strokeWidth=1;align=left;verticalAlign=middle;spacingTop=-1;spacingLeft=3;spacingRight=3;rotatable=0;labelPosition=right;points=[];portConstraint=eastwest;" parent="zkfFHV4jXpPFQw0GAbJ--6" vertex="1">
          <mxGeometry y="80" width="890" height="8" as="geometry" />
        </mxCell>
        <mxCell id="zkfFHV4jXpPFQw0GAbJ--11" value="+ UniversityStudent(name: String, age: int, gender: String, year: int, major: String, gpa: double, roommatePreferences: List&lt;String&gt;, previousInternships: List&lt;String&gt;)&#xa;+ calculateConnectionStrength(other: Student): int&#xa;+ getName(): String&#xa;+ getAge(): int&#xa;+ getGender(): String&#xa;+ getYear(): int&#xa;+ getMajor(): String&#xa;+ getGPA(): double&#xa;+ getRoommatePreferences(): List&lt;String&gt;&#xa;+ getPreviousInternships(): List&lt;String&gt;&#xa;+ getRoommate(): String&#xa;+ setRoommate(roommate: String): void&#xa;+ addFriend(friend: String): void&#xa;+ addChat(other: String, message: String): void" style="text;align=left;verticalAlign=top;spacingLeft=4;spacingRight=4;overflow=hidden;rotatable=0;points=[[0,0.5],[1,0.5]];portConstraint=eastwest;" parent="zkfFHV4jXpPFQw0GAbJ--6" vertex="1">
          <mxGeometry y="88" width="890" height="212" as="geometry" />
        </mxCell>
        <mxCell id="zkfFHV4jXpPFQw0GAbJ--12" value="" style="endArrow=block;endSize=10;endFill=0;shadow=0;strokeWidth=1;rounded=0;curved=0;edgeStyle=elbowEdgeStyle;elbow=vertical;" parent="WIyWlLk6GJQsqaUBKTNV-1" source="zkfFHV4jXpPFQw0GAbJ--6" target="zkfFHV4jXpPFQw0GAbJ--0" edge="1">
          <mxGeometry width="160" relative="1" as="geometry">
            <mxPoint x="300" y="593" as="sourcePoint" />
            <mxPoint x="300" y="593" as="targetPoint" />
          </mxGeometry>
        </mxCell>
        <mxCell id="zkfFHV4jXpPFQw0GAbJ--17" value="ChatThread" style="swimlane;fontStyle=0;align=center;verticalAlign=top;childLayout=stackLayout;horizontal=1;startSize=26;horizontalStack=0;resizeParent=1;resizeLast=0;collapsible=1;marginBottom=0;rounded=0;shadow=0;strokeWidth=1;" parent="WIyWlLk6GJQsqaUBKTNV-1" vertex="1">
          <mxGeometry x="1060" y="1155" width="472" height="90" as="geometry">
            <mxRectangle x="550" y="140" width="160" height="26" as="alternateBounds" />
          </mxGeometry>
        </mxCell>
        <mxCell id="zkfFHV4jXpPFQw0GAbJ--23" value="" style="line;html=1;strokeWidth=1;align=left;verticalAlign=middle;spacingTop=-1;spacingLeft=3;spacingRight=3;rotatable=0;labelPosition=right;points=[];portConstraint=eastwest;" parent="zkfFHV4jXpPFQw0GAbJ--17" vertex="1">
          <mxGeometry y="26" width="472" height="18" as="geometry" />
        </mxCell>
        <mxCell id="zkfFHV4jXpPFQw0GAbJ--25" value="+ ChatThread(sender: UniversityStudent, receiver: UniversityStudent, message: String)&#xa;+ run(): void" style="text;align=left;verticalAlign=top;spacingLeft=4;spacingRight=4;overflow=hidden;rotatable=0;points=[[0,0.5],[1,0.5]];portConstraint=eastwest;" parent="zkfFHV4jXpPFQw0GAbJ--17" vertex="1">
          <mxGeometry y="44" width="472" height="34" as="geometry" />
        </mxCell>
        <mxCell id="qJg5VjKh5MTWd_4G4r-O-0" value="DataParser" style="swimlane;fontStyle=0;align=center;verticalAlign=top;childLayout=stackLayout;horizontal=1;startSize=26;horizontalStack=0;resizeParent=1;resizeLast=0;collapsible=1;marginBottom=0;rounded=0;shadow=0;strokeWidth=1;" vertex="1" parent="WIyWlLk6GJQsqaUBKTNV-1">
          <mxGeometry x="180" y="1160" width="430" height="78" as="geometry">
            <mxRectangle x="550" y="140" width="160" height="26" as="alternateBounds" />
          </mxGeometry>
        </mxCell>
        <mxCell id="qJg5VjKh5MTWd_4G4r-O-2" value="" style="line;html=1;strokeWidth=1;align=left;verticalAlign=middle;spacingTop=-1;spacingLeft=3;spacingRight=3;rotatable=0;labelPosition=right;points=[];portConstraint=eastwest;" vertex="1" parent="qJg5VjKh5MTWd_4G4r-O-0">
          <mxGeometry y="26" width="430" height="18" as="geometry" />
        </mxCell>
        <mxCell id="qJg5VjKh5MTWd_4G4r-O-3" value="+ parseStudents(filename: String): List&lt;UniversityStudent&gt; throws IOException&#xa;&#xa;" style="text;align=left;verticalAlign=top;spacingLeft=4;spacingRight=4;overflow=hidden;rotatable=0;points=[[0,0.5],[1,0.5]];portConstraint=eastwest;" vertex="1" parent="qJg5VjKh5MTWd_4G4r-O-0">
          <mxGeometry y="44" width="430" height="34" as="geometry" />
        </mxCell>
        <mxCell id="qJg5VjKh5MTWd_4G4r-O-4" value="FriendRequestThread" style="swimlane;fontStyle=0;align=center;verticalAlign=top;childLayout=stackLayout;horizontal=1;startSize=26;horizontalStack=0;resizeParent=1;resizeLast=0;collapsible=1;marginBottom=0;rounded=0;shadow=0;strokeWidth=1;" vertex="1" parent="WIyWlLk6GJQsqaUBKTNV-1">
          <mxGeometry x="1060" y="1268" width="432" height="90" as="geometry">
            <mxRectangle x="550" y="140" width="160" height="26" as="alternateBounds" />
          </mxGeometry>
        </mxCell>
        <mxCell id="qJg5VjKh5MTWd_4G4r-O-6" value="" style="line;html=1;strokeWidth=1;align=left;verticalAlign=middle;spacingTop=-1;spacingLeft=3;spacingRight=3;rotatable=0;labelPosition=right;points=[];portConstraint=eastwest;" vertex="1" parent="qJg5VjKh5MTWd_4G4r-O-4">
          <mxGeometry y="26" width="432" height="18" as="geometry" />
        </mxCell>
        <mxCell id="qJg5VjKh5MTWd_4G4r-O-7" value="+ FriendRequestThread(sender: UniversityStudent, receiver: UniversityStudent)&#xa;+ run(): void&#xa;&#xa;&#xa;" style="text;align=left;verticalAlign=top;spacingLeft=4;spacingRight=4;overflow=hidden;rotatable=0;points=[[0,0.5],[1,0.5]];portConstraint=eastwest;" vertex="1" parent="qJg5VjKh5MTWd_4G4r-O-4">
          <mxGeometry y="44" width="432" height="46" as="geometry" />
        </mxCell>
        <mxCell id="qJg5VjKh5MTWd_4G4r-O-11" value="GaleShapley" style="swimlane;fontStyle=0;align=center;verticalAlign=top;childLayout=stackLayout;horizontal=1;startSize=26;horizontalStack=0;resizeParent=1;resizeLast=0;collapsible=1;marginBottom=0;rounded=0;shadow=0;strokeWidth=1;" vertex="1" parent="WIyWlLk6GJQsqaUBKTNV-1">
          <mxGeometry x="180" y="1258" width="340" height="80" as="geometry">
            <mxRectangle x="550" y="140" width="160" height="26" as="alternateBounds" />
          </mxGeometry>
        </mxCell>
        <mxCell id="qJg5VjKh5MTWd_4G4r-O-12" value="" style="line;html=1;strokeWidth=1;align=left;verticalAlign=middle;spacingTop=-1;spacingLeft=3;spacingRight=3;rotatable=0;labelPosition=right;points=[];portConstraint=eastwest;" vertex="1" parent="qJg5VjKh5MTWd_4G4r-O-11">
          <mxGeometry y="26" width="340" height="18" as="geometry" />
        </mxCell>
        <mxCell id="qJg5VjKh5MTWd_4G4r-O-13" value="+ assignRoommates(students: List&lt;UniversityStudent&gt;): void&#xa;&#xa;&#xa;" style="text;align=left;verticalAlign=top;spacingLeft=4;spacingRight=4;overflow=hidden;rotatable=0;points=[[0,0.5],[1,0.5]];portConstraint=eastwest;" vertex="1" parent="qJg5VjKh5MTWd_4G4r-O-11">
          <mxGeometry y="44" width="340" height="36" as="geometry" />
        </mxCell>
        <mxCell id="qJg5VjKh5MTWd_4G4r-O-14" value="Main" style="swimlane;fontStyle=0;align=center;verticalAlign=top;childLayout=stackLayout;horizontal=1;startSize=26;horizontalStack=0;resizeParent=1;resizeLast=0;collapsible=1;marginBottom=0;rounded=0;shadow=0;strokeWidth=1;" vertex="1" parent="WIyWlLk6GJQsqaUBKTNV-1">
          <mxGeometry x="690" y="1160" width="150" height="80" as="geometry">
            <mxRectangle x="550" y="140" width="160" height="26" as="alternateBounds" />
          </mxGeometry>
        </mxCell>
        <mxCell id="qJg5VjKh5MTWd_4G4r-O-15" value="" style="line;html=1;strokeWidth=1;align=left;verticalAlign=middle;spacingTop=-1;spacingLeft=3;spacingRight=3;rotatable=0;labelPosition=right;points=[];portConstraint=eastwest;" vertex="1" parent="qJg5VjKh5MTWd_4G4r-O-14">
          <mxGeometry y="26" width="150" height="18" as="geometry" />
        </mxCell>
        <mxCell id="qJg5VjKh5MTWd_4G4r-O-16" value="+ main(args: String[]): void&#xa;&#xa;" style="text;align=left;verticalAlign=top;spacingLeft=4;spacingRight=4;overflow=hidden;rotatable=0;points=[[0,0.5],[1,0.5]];portConstraint=eastwest;" vertex="1" parent="qJg5VjKh5MTWd_4G4r-O-14">
          <mxGeometry y="44" width="150" height="36" as="geometry" />
        </mxCell>
        <mxCell id="qJg5VjKh5MTWd_4G4r-O-17" value="PodFormation" style="swimlane;fontStyle=0;align=center;verticalAlign=top;childLayout=stackLayout;horizontal=1;startSize=26;horizontalStack=0;resizeParent=1;resizeLast=0;collapsible=1;marginBottom=0;rounded=0;shadow=0;strokeWidth=1;" vertex="1" parent="WIyWlLk6GJQsqaUBKTNV-1">
          <mxGeometry x="750" y="1450" width="220" height="100" as="geometry">
            <mxRectangle x="130" y="380" width="160" height="26" as="alternateBounds" />
          </mxGeometry>
        </mxCell>
        <mxCell id="qJg5VjKh5MTWd_4G4r-O-19" value="- graph: StudentGraph " style="text;align=left;verticalAlign=top;spacingLeft=4;spacingRight=4;overflow=hidden;rotatable=0;points=[[0,0.5],[1,0.5]];portConstraint=eastwest;rounded=0;shadow=0;html=0;" vertex="1" parent="qJg5VjKh5MTWd_4G4r-O-17">
          <mxGeometry y="26" width="220" height="26" as="geometry" />
        </mxCell>
        <mxCell id="qJg5VjKh5MTWd_4G4r-O-20" value="" style="line;html=1;strokeWidth=1;align=left;verticalAlign=middle;spacingTop=-1;spacingLeft=3;spacingRight=3;rotatable=0;labelPosition=right;points=[];portConstraint=eastwest;" vertex="1" parent="qJg5VjKh5MTWd_4G4r-O-17">
          <mxGeometry y="52" width="220" height="8" as="geometry" />
        </mxCell>
        <mxCell id="qJg5VjKh5MTWd_4G4r-O-21" value="+ PodFormation(graph: StudentGraph)&#xa;+ formPods(podSize: int): void" style="text;align=left;verticalAlign=top;spacingLeft=4;spacingRight=4;overflow=hidden;rotatable=0;points=[[0,0.5],[1,0.5]];portConstraint=eastwest;fontStyle=0" vertex="1" parent="qJg5VjKh5MTWd_4G4r-O-17">
          <mxGeometry y="60" width="220" height="40" as="geometry" />
        </mxCell>
        <mxCell id="qJg5VjKh5MTWd_4G4r-O-23" value="ReferralPathFinder " style="swimlane;fontStyle=0;align=center;verticalAlign=top;childLayout=stackLayout;horizontal=1;startSize=26;horizontalStack=0;resizeParent=1;resizeLast=0;collapsible=1;marginBottom=0;rounded=0;shadow=0;strokeWidth=1;" vertex="1" parent="WIyWlLk6GJQsqaUBKTNV-1">
          <mxGeometry x="750" y="1560" width="500" height="100" as="geometry">
            <mxRectangle x="130" y="380" width="160" height="26" as="alternateBounds" />
          </mxGeometry>
        </mxCell>
        <mxCell id="qJg5VjKh5MTWd_4G4r-O-24" value="- graph: StudentGraph " style="text;align=left;verticalAlign=top;spacingLeft=4;spacingRight=4;overflow=hidden;rotatable=0;points=[[0,0.5],[1,0.5]];portConstraint=eastwest;rounded=0;shadow=0;html=0;" vertex="1" parent="qJg5VjKh5MTWd_4G4r-O-23">
          <mxGeometry y="26" width="500" height="26" as="geometry" />
        </mxCell>
        <mxCell id="qJg5VjKh5MTWd_4G4r-O-25" value="" style="line;html=1;strokeWidth=1;align=left;verticalAlign=middle;spacingTop=-1;spacingLeft=3;spacingRight=3;rotatable=0;labelPosition=right;points=[];portConstraint=eastwest;" vertex="1" parent="qJg5VjKh5MTWd_4G4r-O-23">
          <mxGeometry y="52" width="500" height="8" as="geometry" />
        </mxCell>
        <mxCell id="qJg5VjKh5MTWd_4G4r-O-26" value="+ ReferralPathFinder(graph: StudentGraph)&#xa;+ findReferralPath(start: UniversityStudent, targetCompany: String): List&lt;UniversityStudent&gt;" style="text;align=left;verticalAlign=top;spacingLeft=4;spacingRight=4;overflow=hidden;rotatable=0;points=[[0,0.5],[1,0.5]];portConstraint=eastwest;fontStyle=0" vertex="1" parent="qJg5VjKh5MTWd_4G4r-O-23">
          <mxGeometry y="60" width="500" height="40" as="geometry" />
        </mxCell>
        <mxCell id="qJg5VjKh5MTWd_4G4r-O-27" value="StudentGraph" style="swimlane;fontStyle=0;align=center;verticalAlign=top;childLayout=stackLayout;horizontal=1;startSize=26;horizontalStack=0;resizeParent=1;resizeLast=0;collapsible=1;marginBottom=0;rounded=0;shadow=0;strokeWidth=1;" vertex="1" parent="WIyWlLk6GJQsqaUBKTNV-1">
          <mxGeometry x="330" y="1460" width="340" height="160" as="geometry">
            <mxRectangle x="230" y="140" width="160" height="26" as="alternateBounds" />
          </mxGeometry>
        </mxCell>
        <mxCell id="qJg5VjKh5MTWd_4G4r-O-28" value="# graph: Map&lt;String, List&lt;Edge&gt;&gt;" style="text;align=left;verticalAlign=top;spacingLeft=4;spacingRight=4;overflow=hidden;rotatable=0;points=[[0,0.5],[1,0.5]];portConstraint=eastwest;" vertex="1" parent="qJg5VjKh5MTWd_4G4r-O-27">
          <mxGeometry y="26" width="340" height="24" as="geometry" />
        </mxCell>
        <mxCell id="qJg5VjKh5MTWd_4G4r-O-29" value="" style="line;html=1;strokeWidth=1;align=left;verticalAlign=middle;spacingTop=-1;spacingLeft=3;spacingRight=3;rotatable=0;labelPosition=right;points=[];portConstraint=eastwest;" vertex="1" parent="qJg5VjKh5MTWd_4G4r-O-27">
          <mxGeometry y="50" width="340" height="8" as="geometry" />
        </mxCell>
        <mxCell id="qJg5VjKh5MTWd_4G4r-O-30" value="+ StudentGraph(students: List&lt;UniversityStudent&gt;)&#xa;- addStudent(student: String)&#xa;- addEdge(student1: String, student2: String, weight: double)&#xa;+ getNeighbors(student: String): List&lt;Edge&gt;&#xa;+ getAllNodes(): Set&lt;String&gt;&#xa;+ printGraph(): void" style="text;align=left;verticalAlign=top;spacingLeft=4;spacingRight=4;overflow=hidden;rotatable=0;points=[[0,0.5],[1,0.5]];portConstraint=eastwest;" vertex="1" parent="qJg5VjKh5MTWd_4G4r-O-27">
          <mxGeometry y="58" width="340" height="92" as="geometry" />
        </mxCell>
        <mxCell id="qJg5VjKh5MTWd_4G4r-O-31" value="Edge" style="swimlane;fontStyle=0;align=center;verticalAlign=top;childLayout=stackLayout;horizontal=1;startSize=26;horizontalStack=0;resizeParent=1;resizeLast=0;collapsible=1;marginBottom=0;rounded=0;shadow=0;strokeWidth=1;" vertex="1" parent="WIyWlLk6GJQsqaUBKTNV-1">
          <mxGeometry x="385" y="1670" width="230" height="110" as="geometry">
            <mxRectangle x="130" y="380" width="160" height="26" as="alternateBounds" />
          </mxGeometry>
        </mxCell>
        <mxCell id="qJg5VjKh5MTWd_4G4r-O-32" value="# neighbor: String&#xa;# weight: double" style="text;align=left;verticalAlign=top;spacingLeft=4;spacingRight=4;overflow=hidden;rotatable=0;points=[[0,0.5],[1,0.5]];portConstraint=eastwest;" vertex="1" parent="qJg5VjKh5MTWd_4G4r-O-31">
          <mxGeometry y="26" width="230" height="34" as="geometry" />
        </mxCell>
        <mxCell id="qJg5VjKh5MTWd_4G4r-O-34" value="" style="line;html=1;strokeWidth=1;align=left;verticalAlign=middle;spacingTop=-1;spacingLeft=3;spacingRight=3;rotatable=0;labelPosition=right;points=[];portConstraint=eastwest;" vertex="1" parent="qJg5VjKh5MTWd_4G4r-O-31">
          <mxGeometry y="60" width="230" height="8" as="geometry" />
        </mxCell>
        <mxCell id="qJg5VjKh5MTWd_4G4r-O-36" value="+ Edge(neighbor: String, weight: double)&#xa;+ toString(): String" style="text;align=left;verticalAlign=top;spacingLeft=4;spacingRight=4;overflow=hidden;rotatable=0;points=[[0,0.5],[1,0.5]];portConstraint=eastwest;" vertex="1" parent="qJg5VjKh5MTWd_4G4r-O-31">
          <mxGeometry y="68" width="230" height="42" as="geometry" />
        </mxCell>
        <mxCell id="qJg5VjKh5MTWd_4G4r-O-38" value="" style="endArrow=diamondThin;endFill=1;endSize=24;html=1;rounded=0;exitX=0.5;exitY=0;exitDx=0;exitDy=0;entryX=0.5;entryY=1;entryDx=0;entryDy=0;" edge="1" parent="WIyWlLk6GJQsqaUBKTNV-1" source="qJg5VjKh5MTWd_4G4r-O-31" target="qJg5VjKh5MTWd_4G4r-O-27">
          <mxGeometry width="160" relative="1" as="geometry">
            <mxPoint x="496" y="1590" as="sourcePoint" />
            <mxPoint x="656" y="1590" as="targetPoint" />
          </mxGeometry>
        </mxCell>
        <mxCell id="qJg5VjKh5MTWd_4G4r-O-39" value="" style="endArrow=open;endFill=1;endSize=12;html=1;rounded=0;exitX=0;exitY=0.5;exitDx=0;exitDy=0;entryX=1;entryY=0.5;entryDx=0;entryDy=0;" edge="1" parent="WIyWlLk6GJQsqaUBKTNV-1" source="qJg5VjKh5MTWd_4G4r-O-19" target="qJg5VjKh5MTWd_4G4r-O-30">
          <mxGeometry width="160" relative="1" as="geometry">
            <mxPoint x="680" y="1550" as="sourcePoint" />
            <mxPoint x="680" y="1470" as="targetPoint" />
            <Array as="points">
              <mxPoint x="710" y="1564" />
            </Array>
          </mxGeometry>
        </mxCell>
        <mxCell id="qJg5VjKh5MTWd_4G4r-O-40" value="" style="endArrow=open;endFill=1;endSize=12;html=1;rounded=0;exitX=0;exitY=0.5;exitDx=0;exitDy=0;entryX=1;entryY=0.5;entryDx=0;entryDy=0;" edge="1" parent="WIyWlLk6GJQsqaUBKTNV-1" source="qJg5VjKh5MTWd_4G4r-O-24" target="qJg5VjKh5MTWd_4G4r-O-30">
          <mxGeometry width="160" relative="1" as="geometry">
            <mxPoint x="680" y="1600" as="sourcePoint" />
            <mxPoint x="730" y="1650" as="targetPoint" />
            <Array as="points">
              <mxPoint x="710" y="1564" />
            </Array>
          </mxGeometry>
        </mxCell>
        <mxCell id="qJg5VjKh5MTWd_4G4r-O-41" value="" style="endArrow=diamondThin;endFill=1;endSize=24;html=1;rounded=0;exitX=0.5;exitY=0.999;exitDx=0;exitDy=0;exitPerimeter=0;entryX=0.5;entryY=0;entryDx=0;entryDy=0;" edge="1" parent="WIyWlLk6GJQsqaUBKTNV-1" source="zkfFHV4jXpPFQw0GAbJ--11" target="qJg5VjKh5MTWd_4G4r-O-14">
          <mxGeometry width="160" relative="1" as="geometry">
            <mxPoint x="740" y="1350" as="sourcePoint" />
            <mxPoint x="900" y="1350" as="targetPoint" />
          </mxGeometry>
        </mxCell>
        <mxCell id="qJg5VjKh5MTWd_4G4r-O-42" value="" style="endArrow=open;endFill=1;endSize=12;html=1;rounded=0;entryX=1;entryY=0.5;entryDx=0;entryDy=0;exitX=0;exitY=0.5;exitDx=0;exitDy=0;" edge="1" parent="WIyWlLk6GJQsqaUBKTNV-1" source="qJg5VjKh5MTWd_4G4r-O-16" target="qJg5VjKh5MTWd_4G4r-O-3">
          <mxGeometry width="160" relative="1" as="geometry">
            <mxPoint x="770" y="1240" as="sourcePoint" />
            <mxPoint x="900" y="1410" as="targetPoint" />
          </mxGeometry>
        </mxCell>
        <mxCell id="qJg5VjKh5MTWd_4G4r-O-43" value="" style="endArrow=open;endFill=1;endSize=12;html=1;rounded=0;entryX=1;entryY=0.5;entryDx=0;entryDy=0;exitX=0;exitY=0.5;exitDx=0;exitDy=0;" edge="1" parent="WIyWlLk6GJQsqaUBKTNV-1" source="qJg5VjKh5MTWd_4G4r-O-16" target="qJg5VjKh5MTWd_4G4r-O-13">
          <mxGeometry width="160" relative="1" as="geometry">
            <mxPoint x="696" y="1322" as="sourcePoint" />
            <mxPoint x="615" y="1320" as="targetPoint" />
          </mxGeometry>
        </mxCell>
        <mxCell id="qJg5VjKh5MTWd_4G4r-O-45" value="" style="endArrow=diamondThin;endFill=0;endSize=24;html=1;rounded=0;exitX=0.5;exitY=0;exitDx=0;exitDy=0;entryX=0;entryY=0.5;entryDx=0;entryDy=0;" edge="1" parent="WIyWlLk6GJQsqaUBKTNV-1" source="qJg5VjKh5MTWd_4G4r-O-27" target="zkfFHV4jXpPFQw0GAbJ--11">
          <mxGeometry width="160" relative="1" as="geometry">
            <mxPoint x="850" y="1400" as="sourcePoint" />
            <mxPoint x="90" y="1350" as="targetPoint" />
            <Array as="points">
              <mxPoint x="140" y="1390" />
              <mxPoint x="140" y="994" />
            </Array>
          </mxGeometry>
        </mxCell>
        <mxCell id="qJg5VjKh5MTWd_4G4r-O-48" value="" style="endArrow=diamondThin;endFill=1;endSize=24;html=1;rounded=0;entryX=1;entryY=0.5;entryDx=0;entryDy=0;exitX=0;exitY=0.5;exitDx=0;exitDy=0;" edge="1" parent="WIyWlLk6GJQsqaUBKTNV-1" source="zkfFHV4jXpPFQw0GAbJ--25" target="qJg5VjKh5MTWd_4G4r-O-16">
          <mxGeometry width="160" relative="1" as="geometry">
            <mxPoint x="880" y="1360" as="sourcePoint" />
            <mxPoint x="1040" y="1360" as="targetPoint" />
          </mxGeometry>
        </mxCell>
        <mxCell id="qJg5VjKh5MTWd_4G4r-O-49" value="" style="endArrow=diamondThin;endFill=1;endSize=24;html=1;rounded=0;entryX=1;entryY=0.5;entryDx=0;entryDy=0;exitX=0;exitY=0.5;exitDx=0;exitDy=0;" edge="1" parent="WIyWlLk6GJQsqaUBKTNV-1" source="qJg5VjKh5MTWd_4G4r-O-7" target="qJg5VjKh5MTWd_4G4r-O-16">
          <mxGeometry width="160" relative="1" as="geometry">
            <mxPoint x="1070" y="1226" as="sourcePoint" />
            <mxPoint x="850" y="1232" as="targetPoint" />
            <Array as="points">
              <mxPoint x="950" y="1220" />
            </Array>
          </mxGeometry>
        </mxCell>
        <mxCell id="qJg5VjKh5MTWd_4G4r-O-50" value="" style="endArrow=diamondThin;endFill=1;endSize=24;html=1;rounded=0;entryX=0.508;entryY=1.048;entryDx=0;entryDy=0;entryPerimeter=0;exitX=0.5;exitY=0;exitDx=0;exitDy=0;" edge="1" parent="WIyWlLk6GJQsqaUBKTNV-1" source="qJg5VjKh5MTWd_4G4r-O-27" target="qJg5VjKh5MTWd_4G4r-O-16">
          <mxGeometry width="160" relative="1" as="geometry">
            <mxPoint x="880" y="1410" as="sourcePoint" />
            <mxPoint x="760" y="1270" as="targetPoint" />
            <Array as="points">
              <mxPoint x="766" y="1360" />
            </Array>
          </mxGeometry>
        </mxCell>
        <mxCell id="qJg5VjKh5MTWd_4G4r-O-51" value="" style="endArrow=diamondThin;endFill=1;endSize=24;html=1;rounded=0;entryX=0.506;entryY=1.046;entryDx=0;entryDy=0;entryPerimeter=0;exitX=0.5;exitY=0;exitDx=0;exitDy=0;" edge="1" parent="WIyWlLk6GJQsqaUBKTNV-1" source="qJg5VjKh5MTWd_4G4r-O-17" target="qJg5VjKh5MTWd_4G4r-O-16">
          <mxGeometry width="160" relative="1" as="geometry">
            <mxPoint x="510" y="1470" as="sourcePoint" />
            <mxPoint x="776" y="1252" as="targetPoint" />
            <Array as="points">
              <mxPoint x="766" y="1360" />
            </Array>
          </mxGeometry>
        </mxCell>
        <mxCell id="qJg5VjKh5MTWd_4G4r-O-52" value="" style="endArrow=diamondThin;endFill=1;endSize=24;html=1;rounded=0;entryX=0.511;entryY=1.023;entryDx=0;entryDy=0;entryPerimeter=0;exitX=0.5;exitY=0;exitDx=0;exitDy=0;" edge="1" parent="WIyWlLk6GJQsqaUBKTNV-1" source="qJg5VjKh5MTWd_4G4r-O-23" target="qJg5VjKh5MTWd_4G4r-O-16">
          <mxGeometry width="160" relative="1" as="geometry">
            <mxPoint x="870" y="1460" as="sourcePoint" />
            <mxPoint x="776" y="1252" as="targetPoint" />
            <Array as="points">
              <mxPoint x="1000" y="1450" />
              <mxPoint x="767" y="1360" />
            </Array>
          </mxGeometry>
        </mxCell>
      </root>
    </mxGraphModel>
  </diagram>
</mxfile>
